<?xml version="1.0" encoding="UTF-8"?>
<svg id="Capa_1" data-name="Capa 1" xmlns="http://www.w3.org/2000/svg" viewBox="0 0 430 209.76">
  <defs>
    <style>
      .cls-1 {
        fill-rule: evenodd;
      }
    </style>
  </defs>
  <path class="cls-1" d="M327.69,123.49h37.03v42.35c0,4.18,2.48,6.27,7.6,6.27s7.41-2.09,7.41-6.27v-21.83c0-6.84-4.55-14.62-13.48-23.74-17.28-16.71-27.91-27.91-32.28-33.79-4.18-5.7-6.27-11.98-6.27-18.8v-20.89c0-23.92,15.57-35.9,46.9-35.9,28.12,0,41.97,11.02,41.97,32.85v31.91h-36.84v-34c0-3.79-2.09-5.69-6.08-5.69-4.75,0-7.21,3.6-7.21,10.83l.76,11.96c0,6.84,4.73,14.81,13.86,23.92,16.71,16.34,27.53,27.73,32.09,33.99,4.75,6.47,7.03,13.87,7.03,22.04v23.55c0,24.49-15.77,36.64-47.1,36.64s-45.39-11.02-45.39-33.23v-42.17Z"/>
  <path class="cls-1" d="M259.51,165.08h0c0,4.63-1.93,7.73-5.79,9.08-1.55.58-3.47.77-5.8.77V35.5c2.33,0,4.25.2,5.8.78,3.86,1.35,5.79,4.25,5.79,9.07v119.73ZM287.91,20.24c-8.7-5.98-18.74-9.07-29.93-9.07H80.31v85.74L56.74,11.18H9.82v187.71h34.38v-99.84l28.18,99.84h42.29V35.7h25.5v163.18h41.32V35.7h25.12v163.18h51.75c12.16,0,22.2-3.29,30.31-9.47,8.31-6.56,12.36-15.64,12.36-27.41V48.24c0-12.54-4.44-21.82-13.12-28Z"/>
  <path class="cls-1" d="M314.04,179.9h0v2.28h-2.46l.18,3.03h2.28v2.46c-.19-.18-.39-.18-.57-.38h-1.72v5.12h-2.46l-.2-12.33,4.94-.19ZM314.04,173.62h0v2.46c-5.7,0-10.26,4.57-10.06,10.26,0,5.51,4.56,9.88,10.06,9.88v2.46c-6.84,0-12.53-5.51-12.53-12.35-.19-7.02,5.5-12.72,12.53-12.72ZM314.04,187.68h0v-2.46c.94,0,1.52,0,1.7-.2.39,0,.58-.18.76-.57.19-.19.19-.37.19-.76,0-.57,0-.75-.37-1.14-.19-.19-.58-.37-.95-.37h-1.33v-2.28h.37c1.33,0,2.28.19,2.85.37.57.19,1.14.57,1.52,1.15.37.57.57,1.33.57,2.09s-.39,1.51-.76,2.27c-.57.56-1.33.95-2.46,1.13.57.39.94.58,1.33.96.37.37.76,1.14,1.51,2.09l1.52,2.46h-3.03l-1.9-2.66c-.58-.94-1.15-1.7-1.33-1.9l-.2-.19ZM314.04,198.69h.2c7.02-.19,12.53-5.7,12.53-12.72-.19-6.84-5.7-12.35-12.72-12.35v2.46c5.69,0,10.26,4.37,10.26,10.08s-4.57,9.87-10.06,10.06h-.2v2.46Z"/>
</svg>