<?xml version="1.0" encoding="UTF-8"?>
<svg id="Capa_1" data-name="Capa 1" xmlns="http://www.w3.org/2000/svg" viewBox="0 0 430 209.76">
  <defs>
    <style>
      .cls-1, .cls-2 {
        fill-rule: evenodd;
      }

      .cls-2 {
        fill: #ed3237;
      }
    </style>
  </defs>
  <path class="cls-2" d="M328.18,123.57h37.19v42.54c0,4.2,2.49,6.3,7.63,6.3s7.44-2.1,7.44-6.3v-21.93c0-6.87-4.57-14.68-13.54-23.85-17.35-16.78-28.03-28.03-32.43-33.94-4.2-5.73-6.3-12.03-6.3-18.88v-20.98c0-24.03,15.64-36.06,47.11-36.06,28.24,0,42.16,11.07,42.16,33v32.05h-37v-34.15c0-3.81-2.1-5.71-6.1-5.71-4.77,0-7.24,3.61-7.24,10.87l.77,12.01c0,6.87,4.75,14.88,13.92,24.03,16.78,16.41,27.65,27.85,32.23,34.13,4.77,6.49,7.06,13.93,7.06,22.14v23.65c0,24.6-15.84,36.81-47.31,36.81s-45.59-11.07-45.59-33.37v-42.35Z"/>
  <path class="cls-1" d="M259.71,165.34h0c0,4.65-1.94,7.77-5.81,9.12-1.55.58-3.49.78-5.83.78V35.2c2.34,0,4.27.2,5.83.78,3.87,1.36,5.81,4.27,5.81,9.11v120.26ZM288.23,19.87c-8.74-6.01-18.82-9.11-30.06-9.11H79.72v86.12L56.05,10.77H8.92v188.53h34.53v-100.28l28.31,100.28h42.48V35.4h25.61v163.9h41.5V35.4h25.23v163.9h51.98c12.22,0,22.3-3.31,30.44-9.52,8.34-6.59,12.41-15.71,12.41-27.53V48c0-12.6-4.45-21.92-13.18-28.12Z"/>
  <path class="cls-1" d="M314.47,180.23h0v2.29h-2.47l.18,3.04h2.29v2.48c-.2-.18-.39-.18-.57-.38h-1.72v5.15h-2.47l-.2-12.39,4.96-.19ZM314.47,173.93h0v2.47c-5.73,0-10.3,4.59-10.11,10.3,0,5.54,4.58,9.93,10.11,9.93v2.48c-6.87,0-12.58-5.53-12.58-12.4-.19-7.05,5.52-12.78,12.58-12.78ZM314.47,188.04h0v-2.48c.94,0,1.53,0,1.71-.2.39,0,.59-.18.77-.57.19-.19.19-.38.19-.76,0-.57,0-.75-.37-1.14-.19-.19-.59-.38-.96-.38h-1.33v-2.29h.38c1.33,0,2.29.19,2.86.37.57.19,1.14.57,1.53,1.15.38.57.57,1.34.57,2.1s-.39,1.51-.76,2.28c-.57.57-1.34.96-2.48,1.14.57.39.94.59,1.33.96.37.38.76,1.14,1.51,2.1l1.53,2.48h-3.04l-1.9-2.67c-.59-.94-1.16-1.71-1.33-1.91l-.2-.19ZM314.47,199.11h.2c7.05-.19,12.58-5.73,12.58-12.78-.19-6.87-5.73-12.4-12.78-12.4v2.47c5.71,0,10.3,4.39,10.3,10.12s-4.59,9.91-10.11,10.11h-.2v2.48Z"/>
</svg>